<?xml version="1.0" encoding="utf-8"?>
<!-- Generator: Adobe Illustrator 19.2.1, SVG Export Plug-In . SVG Version: 6.00 Build 0)  -->
<svg version="1.1" id="F5_Logo" xmlns="http://www.w3.org/2000/svg" xmlns:xlink="http://www.w3.org/1999/xlink" x="0px" y="0px"
	 viewBox="0 0 48.8 45.1" style="enable-background:new 0 0 48.8 45.1;" xml:space="preserve">
<style type="text/css">
	.st0{fill:#595959;}
	.st1{fill:#FFFFFF;}
	.st2{fill:#E3173E;}
	.st3{font-family:'MyriadPro-Regular';}
	.st4{font-size:12px;}
</style>
<title>f5-logo-solid-cmyk</title>
<path class="st0" d="M48.1,34.4c0.3,0.3,0.4,0.6,0.4,1c0,0.8-0.7,1.4-1.5,1.4c-0.4,0-0.7-0.2-1-0.4c-0.3-0.3-0.4-0.6-0.4-1
	c0-0.8,0.7-1.5,1.5-1.5C47.5,33.9,47.9,34.1,48.1,34.4z M48.3,34.2c-0.3-0.3-0.8-0.5-1.2-0.5c-0.9,0-1.7,0.8-1.7,1.7
	s0.8,1.7,1.7,1.7c0.4,0,0.9-0.2,1.2-0.5C49,35.9,49,34.9,48.3,34.2C48.3,34.2,48.3,34.2,48.3,34.2z M47.3,35.3c-0.1,0-0.2,0-0.3,0
	h-0.3v-0.7H47c0.1,0,0.3,0,0.4,0.1c0.1,0.1,0.1,0.2,0.1,0.3C47.5,35.1,47.5,35.3,47.3,35.3L47.3,35.3z M46.4,36.3h0.3v-0.7h0.3
	c0.1,0,0.3,0,0.4,0.1c0.1,0.1,0.2,0.3,0.2,0.4v0.2h0.3l0,0c0,0,0-0.1,0-0.1c0,0,0-0.1,0-0.1v-0.1c0-0.1,0-0.2-0.1-0.3
	c-0.1-0.1-0.2-0.2-0.3-0.2c0.1,0,0.2,0,0.3-0.1c0.1-0.1,0.2-0.2,0.2-0.4c0-0.2-0.1-0.4-0.3-0.5c-0.2-0.1-0.3-0.1-0.5-0.1h-0.7
	L46.4,36.3z"/>
<path class="st1" d="M4.4,35.9c0.4,0.6,0.9,1.1,1.4,1.7c4.5,0.8,9.1,1.2,13.6,1.3c0-0.5,0-1,0-1.6c-3.1-0.2-4.5-0.6-4.7-1.2
	c-0.2-0.6-0.3-1.3-0.3-1.9c-0.2-4.7-0.3-9.8-0.2-14.9l5.2-0.1c0.9-0.4,1.7-0.8,2.5-1.2c0-0.6,0-1.2,0-1.8c-2.7,0-5.2,0-7.7,0.1
	c0.1-2.1,0.2-4.1,0.3-6.1c0-1.1,0.8-2.1,1.8-2.3c1.4,0,2.8,0.4,4,1.1c0.7,0.3,1.4,0.7,2.1,1c0.3,0.1,0.8,0.2,1-0.1l1.2-1.5
	c0.2-0.3,0.1-0.5,0-0.6c-0.9-0.7-1.8-1.4-2.6-2c-0.7-0.3-1.4-0.5-2.1-0.4h-1c-1.3,0.1-2.5,0.3-3.7,0.6c-4,1.1-8.8,3.9-9.3,8.4
	c-0.1,0.8-0.1,1.5-0.2,2.2l-3.2,0.3c-0.1,0.9-0.1,1.7-0.2,2.6l3.2-0.2c-0.2,4.7,0,9.3,0.4,14c0.1,0.6,0.1,1.2,0.1,1.8
	C6,35.7,5.3,35.9,4.4,35.9z"/>
<polygon class="st2" points="5.8,37.6 5.8,37.6 5.8,37.6 "/>
<circle class="st0" cx="22.4" cy="22.6" r="22.3"/>
<text transform="matrix(1 0 0 1 2.38 24.5205)" class="st1 st3 st4">&lt;Logo&gt;</text>
</svg>
